<?xml version="1.0" encoding="UTF-8"?>
<svg version="1.1" xmlns="http://www.w3.org/2000/svg" viewBox="0 0 1024 1024">
  <!-- Main logo mark — white background removed, transparent -->
  <path d="M0 0 C7.68055726 6.38262337 12.84828104 14.34553294 15.0625 24.125 C15.18625 25.9503125 15.18625 25.9503125 15.3125 27.8125 C15.37566406 28.58803223 15.43882812 29.36356445 15.50390625 30.16259766 C15.93527269 39.96400843 13.27469187 48.57364068 10.5625 57.875 C10.06664538 59.61886305 9.57237515 61.36317729 9.07958984 63.10791016 C8.03995757 66.78161855 6.99218933 70.45286487 5.93847656 74.12255859 C4.29364194 79.86192102 2.68525306 85.61108968 1.0859375 91.36328125 C0.82167969 92.31366776 0.55742188 93.26405426 0.28515625 94.24324036 C-0.24101607 96.13608339 -0.7670995 98.02895114 -1.29309082 99.92184448 C-2.5112927 104.30069365 -3.73620028 108.67766264 -4.9609375 113.0546875 C-6.96754045 120.22832613 -8.96418547 127.40467921 -10.95581055 134.58248901 C-12.37980071 139.71190745 -13.81677711 144.83756125 -15.25976562 149.96166992 C-17.67292201 158.53175116 -20.04268433 167.10950622 -22.31713867 175.7175293 C-24.82712039 185.18364547 -27.40969504 194.62715213 -30.25 204 C-30.50652344 204.89033936 -30.76304687 205.78067871 -31.02734375 206.69799805 C-33.18509002 213.62321526 -36.45690231 218.42801123 -42.3125 222.75 C-48.62481814 224.73721127 -55.0862402 225.04218645 -61.125 222.1875 C-69.7618359 214.1826277 -71.90224181 205.70655882 -74.1875 194.5625 C-74.62093594 192.50359837 -75.05581549 190.44500009 -75.4921875 188.38671875 C-75.69811523 187.41395996 -75.90404297 186.44120117 -76.11621094 185.43896484 C-76.77769166 182.39784961 -77.52355849 179.38543471 -78.3125 176.375 C-79.67409074 171.12095213 -80.6581966 165.8237471 -81.62670898 160.48657227 C-82.46978488 155.86795807 -83.46054062 151.34281155 -84.6875 146.8125 C-87.79100412 147.40717581 -89.65776682 148.32531614 -92.0859375 150.33203125 C-93.04222046 151.11489502 -93.04222046 151.11489502 -94.01782227 151.91357422 C-94.69256592 152.47834473 -95.36730957 153.04311523 -96.0625 153.625 C-96.7649585 154.20523926 -97.46741699 154.78547852 -98.19116211 155.38330078 C-100.36409734 157.18427014 -102.52712904 158.99648595 -104.6875 160.8125 C-105.3479834 161.36566895 -106.0084668 161.91883789 -106.68896484 162.48876953 C-112.66623082 167.50662721 -118.61897559 172.51107639 -124.02587891 178.15161133 C-125.62290678 179.74793525 -127.27593991 181.18827782 -129.00390625 182.640625 C-134.89743457 187.76575488 -140.3589264 193.3348245 -145.86938477 198.86401367 C-147.74579475 200.74578274 -149.62748969 202.62214738 -151.50976562 204.49804688 C-156.91147595 209.89676042 -162.27030873 215.27997003 -167.22143555 221.10131836 C-169.73491189 224.03503288 -172.4122654 226.81536195 -175.0625 229.625 C-179.73110508 234.61449663 -184.17877671 239.71173954 -188.453125 245.046875 C-190.93642179 248.12060599 -193.49464714 251.12205497 -196.0625 254.125 C-201.33579706 260.320041 -206.3833133 266.67545485 -211.36425781 273.10693359 C-212.63024525 274.73870264 -213.90400464 276.3640871 -215.1796875 277.98828125 C-221.43843481 286.01667436 -227.32211602 294.27879057 -233.15087891 302.62304688 C-234.66656839 304.78267561 -236.19584341 306.93192012 -237.73046875 309.078125 C-244.67947603 318.80875492 -251.30498963 328.70161396 -257.6875 338.8125 C-258.18330566 339.59544434 -258.67911133 340.37838867 -259.18994141 341.18505859 C-272.89265226 362.88209777 -285.62279979 385.16662228 -297.6875 407.8125 C-298.22165527 408.8123291 -298.75581055 409.8121582 -299.30615234 410.84228516 C-320.95199174 451.51424294 -338.81924763 493.76448656 -355.79985046 536.55230713 C-361.010239 549.67389653 -366.32319777 562.75317084 -371.6875 575.8125 C-372.20183594 577.07755371 -372.20183594 577.07755371 -372.7265625 578.36816406 C-382.43342363 602.16052476 -395.43915434 624.60687621 -413.6875 642.8125 C-414.58210938 643.71871094 -415.47671875 644.62492188 -416.3984375 645.55859375 C-430.67142887 659.30838163 -449.65922808 667.68878476 -469.5625 668.1875 C-493.01561761 667.5578861 -511.87598431 657.95711259 -528.6875 641.8125 C-529.43644531 641.11511719 -530.18539063 640.41773438 -530.95703125 639.69921875 C-555.43447535 616.25059892 -570.10958652 582.33993739 -584.93798828 552.34399414 C-588.15820031 545.83153091 -591.51405764 539.40106048 -594.92407227 532.98632812 C-598.07268884 527.03997447 -601.07967398 521.0309113 -604.0625 515 C-630.27236088 456.82019456 -630.27236088 456.82019456 -674.00390625 413.6953125 C-681.62045558 411.18972276 -689.76074216 411.89588049 -696.9375 415.3125 C-714.62382412 425.3487871 -730.93404056 442.30634741 -743.54296875 458.1640625 C-745.67672402 460.79919196 -747.90127147 463.3090995 -750.1875 465.8125 C-753.30208668 469.22989372 -756.2793662 472.7177235 -759.1875 476.3125 C-774.42972798 495.05990933 -774.42972798 495.05990933 -782.6875 497.8125 C-788.91871387 498.37897399 -788.91871387 498.37897399 -792.0625 496.0625 C-795.80543684 490.87997206 -795.22463706 484.2133307 -794.26611328 478.14453125 C-793.65814027 475.18163134 -792.97435501 472.24913082 -792.25 469.3125 C-791.98558105 468.23025146 -791.72116211 467.14800293 -791.44873047 466.03295898 C-783.06588315 433.03770976 -768.26294948 399.03166924 -747.6875 371.8125 C-747.00300781 370.89855469 -746.31851563 369.98460937 -745.61328125 369.04296875 C-727.62722068 345.87633901 -703.39490328 324.59743502 -673.61328125 319.26171875 C-660.96964762 317.8149348 -646.70115319 317.21568833 -634.6875 321.8125 C-633.77460205 322.15909668 -633.77460205 322.15909668 -632.84326172 322.51269531 C-609.8557118 331.42086113 -591.79830823 347.66585136 -576.6875 366.8125 C-576.20506836 367.41852051 -575.72263672 368.02454102 -575.22558594 368.64892578 C-550.01204238 400.43264414 -530.54782097 436.75661635 -511.49072266 472.44433594 C-509.72559569 475.74134266 -507.94868172 479.03170187 -506.16796875 482.3203125 C-498.57001047 496.37902103 -491.1748031 510.53432683 -483.875 524.75 C-483.20824249 526.04627823 -483.20824249 526.04627823 -482.52801514 527.3687439 C-481.25946316 529.8369029 -479.99431873 532.30677431 -478.73046875 534.77734375 C-478.35094559 535.51571472 -477.97142242 536.25408569 -477.58039856 537.01483154 C-475.77222507 540.56075201 -474.0843388 544.07831773 -472.6875 547.8125 C-469.79886323 546.36818161 -469.5268038 544.518219 -468.28125 541.55859375 C-467.55035156 539.84216675 -467.55035156 539.84216675 -466.8046875 538.09106445 C-466.54268555 537.46833649 -466.28068359 536.84560852 -466.01074219 536.20401001 C-464.57583425 532.79817815 -463.11527167 529.40336831 -461.65625 526.0078125 C-461.34236328 525.27635513 -461.02847656 524.54489777 -460.70507812 523.79127502 C-450.41446611 499.86954966 -439.57564653 476.18654321 -428.13720703 452.79296875 C-426.24635506 448.90554523 -424.39224351 445.00118918 -422.5390625 441.09570312 C-413.00336586 421.01837653 -403.10246782 401.16099222 -392.3046875 381.73046875 C-390.55660397 378.57631803 -388.82469831 375.41358425 -387.09375 372.25 C-379.55048064 358.50675632 -371.7332368 344.9826214 -363.45996094 331.66601562 C-361.64575886 328.74530022 -359.84218862 325.81818862 -358.0390625 322.890625 C-345.76462587 303.0322593 -332.92965978 283.59993698 -319.11767578 264.77636719 C-317.36623758 262.37135372 -315.65403461 259.94025396 -313.94311523 257.50634766 C-308.02448175 249.1037532 -301.71208322 241.01936549 -295.35986328 232.94189453 C-293.84757913 231.0163263 -292.34207092 229.08576081 -290.83984375 227.15234375 C-281.24046682 214.81954336 -271.45614647 202.62115023 -260.83984375 191.14453125 C-258.95788624 189.10545932 -257.12560916 187.03757608 -255.3125 184.9375 C-246.08956292 174.3562009 -236.34259735 164.30495905 -226.40429688 154.39892578 C-224.42199756 152.4220399 -222.44517367 150.43978961 -220.46875 148.45703125 C-214.37729398 142.36237981 -208.27979409 136.37030467 -201.6875 130.8125 C-200.07981627 129.35804483 -198.47510285 127.90029105 -196.875 126.4375 C-192.53185726 122.51872541 -188.0636715 118.79110098 -183.515625 115.11328125 C-180.66806615 112.79668987 -177.86546109 110.43276355 -175.0625 108.0625 C-166.58805596 100.98004742 -157.88131585 93.94171056 -148.6875 87.8125 C-148.6875 87.1525 -148.6875 86.4925 -148.6875 85.8125 C-149.50500732 85.58699463 -150.32251465 85.36148926 -151.16479492 85.12915039 C-166.42622163 80.90776893 -181.66438432 76.61351565 -196.8125 72 C-198.0193042 71.6397876 -199.2261084 71.2795752 -200.46948242 70.90844727 C-208.24558855 68.50959556 -214.23014301 66.07835432 -219.6875 59.8125 C-221.4762051 54.44638469 -221.87062584 48.01559678 -219.88671875 42.64453125 C-215.3938704 35.6505096 -207.18725765 32.58578105 -199.4062376 30.83404541 C-198.52605371 30.65113953 -197.64586981 30.46823364 -196.73901367 30.27978516 C-195.78251073 30.06879181 -194.82600779 29.85779846 -193.84051991 29.64041138 C-190.68164123 28.9471371 -187.51876033 28.27438771 -184.35546875 27.6015625 C-182.10779062 27.1122467 -179.86040036 26.62160691 -177.61328125 26.12973022 C-171.61028671 24.81938105 -165.60366483 23.52647677 -159.59606552 22.23742676 C-153.38866077 20.90300544 -147.184284 19.55466335 -140.97973633 18.20703125 C-133.54320959 16.59237719 -126.10648236 14.97870839 -118.66825867 13.37188721 C-105.22120113 10.4649608 -91.78641287 7.51245915 -78.37178612 4.45927048 C-75.94953741 3.90828404 -73.52678907 3.35955626 -71.10383606 2.81167603 C-69.57028067 2.46478854 -68.03672656 2.11789536 -66.50317383 1.77099609 C-65.40441909 1.52250003 -65.40441909 1.52250003 -64.28346729 1.26898384 C-60.76575294 0.47216295 -57.24963296 -0.33070235 -53.73641968 -1.14715576 C-14.22966874 -10.31886574 -14.22966874 -10.31886574 0 0 Z" fill="#FD6C06" transform="translate(923.6875,173.1875)"/>
</svg>
